# xmcd
#
# Track frame offsets: 
#        150
#        16304
#        30088
#        47971
#        66282
#        86662
#        101644
#        122487
#        143272
#        161710
#        188704
#        205963
#        227610
#        245831
#        264877
#        284199
#
# Disc length: 4079 seconds
#
# Revision: 0
# Processed by: cddbd v1.5.2PL0 Copyright (c) Steve Scherf et al.
# Submitted via: ExactAudioCopy v0.99pb4
#
DISCID=db0fed10
DTITLE=Sugarland - Love On The Inside
DYEAR=2008
DGENRE=Country
TTITLE0=All I Want To Do
TTITLE1=It Happens
TTITLE2=We Run
TTITLE3=Joey
TTITLE4=Love
TTITLE5=Genevieve
TTITLE6=Already Gone
TTITLE7=Keep You
TTITLE8=Take Me As I Am
TTITLE9=What I'd Give
TTITLE10=Very Last Counrty Song
TTITLE11=Fall Into Me
TTITLE12=Operation - Working Vacation
TTITLE13=Wishing
TTITLE14=Life In A Northern Town (Live)
TTITLE15=Come On Get Higher (Live)
EXTD=
EXTT0=
EXTT1=
EXTT2=
EXTT3=
EXTT4=
EXTT5=
EXTT6=
EXTT7=
EXTT8=
EXTT9=
EXTT10=
EXTT11=
EXTT12=
EXTT13=
EXTT14=
EXTT15=
PLAYORDER=
